<?xml version="1.0" encoding="UTF-8" standalone="no"?>
<svg width="1032px" height="498px" viewBox="0 0 1032 498" version="1.1" xmlns="http://www.w3.org/2000/svg" xmlns:xlink="http://www.w3.org/1999/xlink" xmlns:sketch="http://www.bohemiancoding.com/sketch/ns">
    <title>OKCJS</title>
    <description>Created with Sketch (http://www.bohemiancoding.com/sketch)</description>
    <defs></defs>
    <g id="Page-1" stroke="none" stroke-width="1" fill="none" fill-rule="evenodd" sketch:type="MSPage">
        <path d="M335.706674,480.485505 L344.191671,480.401051 L357.187109,480.185535 L357.558356,480.178763 L357.709201,480.176107 L358.427917,480.158579 L372.578942,480.023532 L377.737628,479.92487 L383.137931,479.824216 L384.460866,479.800049 L384.527142,479.798986 L398.299977,479.600998 L399.363253,479.506452 L402.11021,479.497821 L408.043545,479.444705 L410.0639,479.42731 L415.910726,479.413766 L416.440055,479.409516 L416.608744,479.408188 L416.876886,479.405533 L416.876847,479.396503 L418.774276,479.394113 L422.097148,479.354807 L427.90777,479.34445 L431.643841,479.417218 L443.206536,479.289475 L446.677864,479.27779 L460.696285,479.228923 L461.23565,479.227861 L470.117503,479.190415 L472.522395,479.24446 L474.373809,479.237422 L474.43338,479.237156 L476.652867,479.228923 L485.071575,479.215644 L490.094869,479.210731 L490.162326,479.203959 L491.270171,479.208474 L491.409772,479.209005 L499.914723,479.215512 L500.35664,479.216176 L500.566313,479.220823 L504.150172,479.254153 L509.24541,479.231977 L509.712432,479.215777 L517.122058,479.237023 L529.752038,479.284429 L544.478991,479.293592 L544.70826,479.298239 L545.804197,479.301293 L551.14218,479.268893 L552.292324,479.262121 L553.223793,479.268627 L566.038433,479.36543 L568.190185,479.361048 L569.52264,479.397565 L573.140127,479.430099 L576.700964,479.483878 L580.890875,479.518005 L588.76346,479.622775 L589.407496,479.632469 L589.5495,479.634461 L590.108607,479.64203 L590.550895,479.647341 L594.087835,479.690631 L606.541731,479.851571 L608.716543,479.88105 L617.475033,480.004278 L619.325916,480.044115 L619.696817,480.052215 L619.703336,480.069079 L621.443666,480.060315 L629.902177,480.184207 L635.411531,480.287119 L636.986027,480.322308 L640.32645,480.315004 L640.600527,480.314473 L645.563878,480.392553 L647.694799,480.430132 L647.765536,480.425617 L649.963808,480.465454 L656.394408,480.562523 L657.644549,480.577395 L666.783048,480.752013 L668.260254,480.779898 L671.758533,480.845098 L676.710878,480.939378 L693.795208,481.281044 L694.806653,481.302157 L695.92273,481.319685 L697.775179,481.349297 L698.048407,481.351422 L699.939809,481.389798 L700.368038,481.39511 L707.559453,481.541177 L708.705946,481.554456 L715.14718,481.702914 L716.114787,481.730667 L719.981724,481.814324 L721.058702,481.846326 L721.128496,481.848451 L721.485165,481.859074 L722.054787,481.876071 L723.659792,481.903957 L723.828322,481.910995 L726.875537,481.990137 L727.912141,482.010985 L733.196727,482.125449 L736.457904,482.153069 L736.827703,482.20884 L741.817063,482.29741 L742.828535,482.358361 L743.381336,482.378545 L746.466176,482.450118 L747.063213,482.4545 L768.359279,482.915676 L771.304625,482.982734 L781.331869,483.320018 L783.829403,483.404074 L797.440904,483.792747 L797.761262,483.801776 L804.709973,483.973207 L806.783181,484.027783 L808.585645,484.107988 L812.219675,484.208775 L812.413138,484.198417 L812.729288,484.206252 L813.032586,484.212626 L813.497205,484.243167 L813.733909,484.226436 L830.325819,484.720809 L837.865605,485.02131 L838.913933,485.051719 L841.033821,485.133782 L844.937241,485.256612 L845.16108,485.26365 L845.316268,485.26843 L846.149014,485.290208 L853.112673,485.501475 L855.619302,485.613416 L857.752161,485.67025 L858.793478,485.715398 L860.920536,485.78405 L863.739597,485.882579 L864.113764,485.899045 L864.645947,485.931047 L866.26833,485.964245 L867.473943,486.025991 L870.091973,486.113632 L872.659938,486.203796 L874.136521,486.255849 L874.293686,486.262887 L874.813389,486.285859 L875.808014,486.321978 L875.832017,486.322376 L876.256648,486.331406 L878.990847,486.428209 L880.811858,486.49301 L885.444362,486.664175 L888.142329,486.748496 L900.4218,487.206751 L909.45973,487.572452 L909.800561,487.583473 L909.832371,487.584535 L910.481651,487.608703 L915.317483,487.806558 L925.522165,488.231218 L927.650763,488.309961 L930.242692,488.417388 L930.264558,488.418184 L939.919401,488.808451 L942.757102,488.936592 L944.133766,488.981608 L945.024092,489.02171 L947.257042,489.117849 L947.707907,489.133784 L949.16496,489.197257 L959.888004,489.59257 L960.812025,489.627095 L961.616213,489.657238 L965.966556,489.8211 L966.367993,489.839026 L966.976514,489.861866 L967.015905,489.863327 L967.417435,489.878465 L968.557887,489.925339 L969.840462,489.980314 L971.209746,490.039139 L974.944662,490.200345 L979.4296,490.389171 L979.682847,490.397271 L982.56813,490.546127 L983.865243,490.607741 L984.109076,490.617435 L992.918932,491 L993.767185,490.959765 L993.783939,490.675862 L993.7963,490.454237 L994.099492,483.886894 L994.114083,483.356668 L994.16829,482.032496 L994.206898,480.861696 L994.24046,480.359223 L994.279227,479.434746 L994.331748,478.182281 L994.434335,476.052877 L994.500199,473.549805 L994.58684,471.908932 L994.754972,468.724122 L994.77956,468.197216 L994.787419,468.028706 L994.911566,465.367749 L994.929928,464.974295 L995.156183,460.12139 L995.27733,457.521781 L995.310096,456.818398 L995.379186,455.380426 L995.771117,447.216694 L995.999457,442.500694 L996.010716,442.269774 L996.119263,440.042372 L996.315342,436.01661 L996.319417,435.932687 L996.407466,434.124367 L996.440272,433.275979 L996.493776,432.136384 L996.501781,431.966547 L996.642405,428.983443 L996.700635,427.660467 L996.800552,425.389112 L996.837753,424.543512 L996.906684,422.975805 L996.91615,422.844211 L996.912977,422.576774 L997.037323,420.147666 L997.056866,419.734958 L997.156598,417.437178 L997.563876,415.32517 L997.798921,414.044155 L997.986064,412.932711 L998.162268,411.886201 L999.166863,406.085051 L999.610758,403.643327 L999.708167,403.180558 L999.897753,402.080667 L1000.07538,401.050357 L1001.11109,394.915906 L1001.16296,394.617529 L1001.44669,392.985553 L1002.27771,388.207276 L1003.60646,380.897908 L1003.60814,380.819429 L1003.8984,379.432449 L1004.05275,378.495888 L1004.0819,378.358186 L1004.15832,377.956101 L1004.57708,375.575063 L1004.66233,375.158371 L1005.31176,371.672395 L1005.40263,371.184794 L1005.55011,370.403331 L1005.976,368.107145 L1005.99083,368.027206 L1006.00357,367.958554 L1006.26443,366.546476 L1006.52934,365.174501 L1008.35294,355.735331 L1008.37843,355.587271 L1009.08666,351.784727 L1009.09018,351.784859 L1009.36159,350.335335 L1010.0335,346.747511 L1010.28351,345.412716 L1010.42265,344.661396 L1010.60684,343.801986 L1010.85608,342.490961 L1011.4548,339.298183 L1011.47457,339.241615 L1012.03165,336.321719 L1012.07847,336.076192 L1012.30403,334.916015 L1012.34548,334.735555 L1012.34322,334.721612 L1012.34694,334.640743 L1012.93587,331.270029 L1013.06154,330.550977 L1013.06881,330.509414 L1013.17623,329.894734 L1014.74803,321.699132 L1015.06998,319.900771 L1015.26374,318.837265 L1015.49716,317.494901 L1015.7923,315.915908 L1015.85779,315.533343 L1015.89435,315.360983 L1016.0388,314.520827 L1016.13449,314.015565 L1016.1739,313.811336 L1016.84524,310.331734 L1017.03135,309.393182 L1017.32109,307.744076 L1017.87214,304.608132 L1017.96826,304.155587 L1018.50054,301.299031 L1018.74314,299.997168 L1020.35993,291.325651 L1021.5504,284.803456 L1021.6834,284.052004 L1021.73794,283.811656 L1021.86307,283.137088 L1022.4154,280.011236 L1022.89656,277.288797 L1023.31567,274.917983 L1024.08925,270.543384 L1025.34715,264.096347 L1025.39523,263.850024 L1025.54255,263.095118 L1026.23887,259.528407 L1027.01655,255.546199 L1026.92472,255.20626 L1026.73772,254.514031 L1026.93108,253.550116 L1026.87373,252.880461 L1027.14878,251.903267 L1027.10342,251.576208 L1027.11251,251.466126 L1027.15823,250.913857 L1027.17563,249.555293 L1027.17934,249.264751 L1027.19003,248.428977 L1027.2442,244.181191 L1027.24879,243.820404 L1027.26447,242.586794 L1027.23901,240.36975 L1027.25296,239.778042 L1027.3274,238.068916 L1027.29132,237.827107 L1027.29866,237.389036 L1027.32915,235.456957 L1027.34803,234.258537 L1027.28275,233.089596 L1027.27894,232.656438 L1027.35921,231.428804 L1027.41356,228.484873 L1027.4029,228.129132 L1027.4042,227.162428 L1027.40515,226.461435 L1027.43366,225.91461 L1027.50079,224.971543 L1027.50403,224.684188 L1027.50406,224.682594 L1027.52641,222.70125 L1027.54021,222.292659 L1027.55654,221.527396 L1027.66672,216.355001 L1027.67024,215.013567 L1027.69088,213.754728 L1027.91221,200.178916 L1027.95598,197.477723 L1028.00974,194.151626 L1028.20546,181.968771 L1028.23726,181.716604 L1028.26479,181.186644 L1028.27622,180.40943 L1028.298,178.927638 L1028.33847,176.873393 L1028.34708,176.483657 L1028.35777,175.999509 L1028.42743,171.929527 L1028.64103,159.374598 L1028.64807,158.959101 L1028.65469,158.567905 L1028.73254,153.960128 L1028.7622,152.200143 L1028.8892,144.640601 L1028.94621,143.459045 L1029.05439,138.276823 L1029.21386,130.608925 L1029.23042,130.2249 L1029.34809,124.645639 L1029.58109,113.615259 L1029.62185,111.6784 L1029.63798,110.92283 L1029.67166,109.188474 L1029.74779,105.526819 L1029.804,102.818721 L1029.80173,101.714448 L1030.16946,84.9210274 L1030.25703,80.8997795 L1030.42252,73.2778265 L1030.43659,72.6286213 L1030.69391,60.7117424 L1030.74088,58.5280281 L1030.85975,52.9912599 L1030.86,52.98555 L1030.87438,52.6638024 L1031.02731,43.4705576 L1031.04033,42.9502905 L1031.08833,41.1081094 L1031.08992,41.0474249 L1031.10213,40.5782815 L1031.28926,32.2752539 L1031.27246,32.2319647 L1031.33467,28.6209019 L1031.34837,27.8241682 L1031.40943,24.7011049 L1031.4902,20.6758734 L1031.491,20.6408171 L1031.5135,19.6182094 L1031.52018,18.627471 L1031.52111,18.5863064 L1031.62862,13.7995303 L1031.63406,13.4087324 L1031.64208,12.9868619 L1031.64249,12.9549925 L1031.73759,7.9627919 L1031.77668,7.16685492 L1031.80858,4.25293416 L1031.84419,3.71049129 L1031.87822,0.0906644567 L1031.93718,-1.39511113 L1032,-3.6731056 L1031.85547,-4.99794097 L1031.41261,-5.55260042 L1031.38831,-5.58314188 L1031.26744,-5.6382493 L1031.15629,-5.68884189 L1029.8002,-6.30697446 L1027.84025,-7 L1027.75956,-6.95883542 L1027.13711,-6.64107146 L1026.79521,-6.26647383 L1026.65133,-5.4507513 L1026.81695,-5.0973999 L1026.80653,-5.04574499 L1026.67869,-4.41127938 L1026.15254,-3.95807069 L1025.52044,-3.94572132 L1025.46453,-3.944659 L1024.86367,-4.27344445 L1024.21362,-4.30146292 L1023.76538,-3.97466931 L1023.63287,-3.41801802 L1023.89111,-3.03532026 L1023.86964,-2.19649245 L1023.74085,-1.72615398 L1023.1066,-1.2775929 L1022.27284,-1.42937068 L1022.17345,-1.44742997 L1021.67541,-1.64196579 L1021.42082,-1.60956528 L1021.22733,-1.31503939 L1021.24675,-0.924905448 L1021.30927,-0.805395391 L1021.54758,-0.349663708 L1021.45684,0.0791118179 L1021.27858,0.312953162 L1021.07359,0.58185079 L1020.546,1.07834868 L1020.19326,1.68652208 L1019.31969,1.84772787 L1018.87579,1.61999482 L1018.85969,1.6117619 L1018.48479,1.07648964 L1018.10432,0.670952177 L1017.34627,0.638551673 L1016.79929,0.745048412 L1016.2774,1.11220986 L1015.89962,1.48109757 L1015.59833,1.77549068 L1015.04776,1.96830024 L1014.27385,1.45971855 L1013.94034,0.796703314 L1013.85226,0.710656073 L1013.38473,0.253994868 L1012.45532,-0.00162386489 L1012.05277,0.111246744 L1011.8228,0.544669883 L1011.73849,0.70348547 L1011.76696,1.74295739 L1011.75739,1.80178289 L1011.71449,2.06590012 L1011.66927,2.34435855 L1011.57689,2.62892527 L1011.50305,2.85639275 L1011.16003,3.27454516 L1010.30264,3.40945873 L1007.19414,2.12950603 L1006.45814,2.1947054 L1006.00168,2.23520603 L1004.33715,2.38286735 L1004.05469,2.55921107 L1004.05178,2.57408344 L1003.95474,3.07230758 L1003.92739,3.72948011 L1003.97366,3.90808125 L1004.06284,4.252403 L1003.82957,5.13624626 L1003.34907,5.35136437 L1002.83327,5.47100721 L1002.48608,5.31551135 L1002.22123,5.06932063 L1002.17424,4.94237439 L1002.04457,4.59181156 L1001.74824,4.1562638 L1001.23436,4.22903214 L1000.61874,4.86190429 L1000.35038,5.65013951 L1000.47878,6.37596392 L1000.50962,6.55018302 L1000.23546,7.47944011 L999.868678,8.04007507 L999.816103,8.12041238 L998.889613,8.34827822 L998.506458,8.44255838 L997.881885,8.41679732 L997.761362,8.41175134 L997.277253,8.72101681 L996.654313,9.54178532 L996.584228,10.2912462 L996.716221,10.8178872 L996.786679,11.0990014 L996.747513,11.3903403 L996.730095,11.5199423 L996.518629,11.8873694 L996.160008,12.0136517 L995.646506,12.0866856 L995.339092,11.8426195 L995.055867,11.6179406 L993.896881,10.6983771 L992.808645,10.4187236 L991.486108,11.0701862 L991.117982,11.4313721 L991.025897,11.4340279 L990.904073,11.4376132 L990.670714,11.444651 L990.449597,11.4511577 L989.90836,11.2410855 L989.598556,11.0164066 L989.565033,10.9921063 L989.440554,10.1876708 L989.220525,9.80258283 L989.107583,9.73658672 L988.875247,9.60061083 L987.545912,9.45281673 L986.601765,9.43741321 L984.102093,10.2648212 L984.083931,10.2770378 L983.975423,10.3502045 L983.421906,10.723607 L983.106977,11.1620761 L983.282504,11.6507395 L983.27572,11.7049174 L983.254239,11.8767463 L983.185334,12.427422 L982.768908,13.022051 L982.490782,13.1049113 L982.007695,12.968537 L981.908455,12.9405185 L981.68889,13.2388953 L981.629226,13.3200294 L981.396943,13.4865467 L980.790612,13.9212977 L979.864626,14.5853753 L979.365104,14.8463056 L978.726378,14.8490942 L978.423704,15.1729664 L977.672794,15.9766051 L977.599906,16.4165349 L977.593335,16.4561061 L977.62691,17.1331969 L977.905674,18.2301665 L977.907612,18.6888195 L977.869655,18.845776 L977.763033,19.2863698 L977.553333,19.4952468 L977.242135,19.7243077 L976.954968,19.8398341 L976.914661,19.8560344 L976.432995,19.812878 L975.959918,19.5527444 L975.541448,19.439741 L975.077984,19.4454509 L974.485314,19.6633576 L973.908191,20.509356 L973.836406,21.067468 L973.763027,21.6379293 L972.707836,22.9684746 L971.869275,23.233123 L971.620463,24.906131 L971.243215,26.4653389 L971.178506,26.7329086 L970.859316,26.8984964 L970.618696,26.8311724 L970.285778,26.5400991 L969.660448,25.3993092 L969.462604,25.2543036 L968.960891,25.1933535 L968.827357,25.1771533 L968.576607,25.2703711 L968.323121,25.3646513 L968.304641,25.3715563 L968.28612,25.4067454 L967.925282,26.0922019 L967.318593,26.8164329 L966.295929,27.3054946 L965.333844,26.5748898 L965.263785,26.5493943 L964.617293,26.3140923 L963.641202,26.3106398 L963.496331,26.3101086 L963.2395,26.3093119 L962.785541,26.3077184 L962.604757,26.3537962 L961.621776,26.6045017 L961.311136,26.817628 L959.976942,30.1198236 L959.654818,31.3588773 L959.086697,31.9705033 L958.366707,32.2397992 L958.081119,32.0815148 L957.921152,31.9929446 L957.445527,31.7294913 L957.418085,31.6939039 L956.847958,30.9544022 L956.056874,30.9242591 L955.613324,31.3032388 L955.429712,31.7911054 L955.429885,31.8584294 L955.431823,32.6028442 L954.974811,33.3375655 L954.681921,33.6630312 L954.508147,33.7741756 L954.360594,33.8684557 L953.425169,33.7340733 L952.305507,34.1072103 L951.993248,34.5111543 L951.959579,34.9651597 L952.002714,35.531239 L952.067701,36.384408 L951.617129,36.8644401 L950.860934,37.1524593 L950.824079,37.1664022 L950.741965,37.1601611 L948.567072,36.9945733 L947.774023,37.0674744 L947.129854,37.126831 L946.43327,37.4149831 L946.169961,37.6822872 L944.239685,38.9010242 L940.31181,40.2347565 L939.846752,40.3927753 L938.981028,40.4178724 L938.484413,40.2240006 L938.40263,40.0954609 L938.358951,40.0266762 L938.347693,40.0090152 L936.163972,36.5756241 L935.878836,36.1274614 L935.812003,35.5439867 L935.899374,35.1822696 L936.12393,34.7357004 L936.234403,33.6963613 L936.237735,33.1095669 L936.007523,31.970636 L935.695237,31.5897973 L935.059499,31.1318082 L934.719571,31.0107047 L934.300636,31.1551791 L933.636725,31.3843728 L933.294434,31.3284687 L932.991481,31.1869156 L932.765637,30.9178852 L932.705827,30.5679863 L932.627085,29.4598625 L932.609799,29.216726 L932.616862,28.521443 L932.427143,27.7536573 L931.898944,27.321562 L931.045699,27.3559544 L927.208714,28.7398808 L926.237482,28.7910046 L926.108516,28.7129247 L926.112485,27.9006547 L926.112897,27.8169976 L926.114968,27.3918074 L925.719625,26.4159414 L925.644467,26.2304352 L925.632333,26.2004249 L925.578537,26.1932543 L924.013932,25.9829166 L921.198044,25.9501178 L917.434477,25.5486967 L917.333524,25.5379408 L917.261353,25.5302391 L917.206588,25.5243964 L916.927719,25.5360818 L915.881847,25.5800349 L912.330383,25.7296881 L910.62473,26.1106596 L910.349644,26.1721409 L910.23799,26.3244498 L910.38638,27.1334001 L910.518852,27.8556392 L910.334297,28.1763245 L910.082644,28.2865394 L909.785997,28.2334238 L909.466794,28.1761917 L908.5317,27.2272819 L908.443054,27.1373838 L908.269824,27.0612957 L906.812691,26.4208546 L905.550469,26.3660127 L905.537498,26.3722538 L905.077631,26.5929491 L905.016228,26.9152279 L905.00963,28.053362 L904.520078,28.601382 L903.871408,28.7280626 L903.286359,28.4407073 L902.668664,27.8531162 L901.890537,27.307752 L901.712129,27.1827976 L901.620058,27.1580988 L900.918933,26.9704681 L900.308075,27.002603 L900.252686,27.0055243 L900.210401,27.0425725 L899.856241,27.3535642 L899.384638,28.1436584 L899.366198,28.1745983 L899.363861,28.2089906 L899.306295,29.0572464 L899.622989,30.084369 L899.630623,31.0638203 L899.351846,32.0302583 L898.582003,33.8413668 L898.259521,34.2965673 L898.188572,34.3650864 L898.141149,34.4110314 L898.057136,34.4922982 L897.853477,34.5496631 L897.828079,34.5567009 L897.8077,34.5625436 L897.757197,34.576752 L895.024419,34.8173656 L894.98074,34.8212165 L893.295731,34.73092 L892.8416,33.675779 L892.148973,33.1260327 L888.849534,30.5084969 L887.588188,30.3733177 L886.032478,30.7820421 L885.359141,30.6185789 L884.80022,30.2629701 L883.988066,28.9673483 L883.050304,27.9038416 L881.583891,27.1170671 L879.877508,26.9640942 L879.54779,27.0379248 L879.501309,27.0678024 L879.093167,27.3305917 L878.331662,27.8211141 L877.67601,28.243383 L877.552486,28.2761818 L876.552671,28.5413614 L875.346607,28.4719127 L874.251799,27.9755476 L874.049508,27.7118288 L874.018321,27.6711954 L873.986299,27.5862104 L873.613048,26.5953393 L873.606715,26.3672078 L873.57602,25.2617398 L873.662767,25.0735779 L873.807573,24.7593992 L874.232535,24.3372631 L874.770759,22.6593419 L874.684316,22.2921805 L874.247073,21.7014024 L873.568001,21.3665087 L872.549266,20.7243413 L872.399868,20.7222167 L872.028422,20.903872 L870.546821,22.507697 L870.494751,22.5476664 L870.361815,22.6497811 L870.297796,22.6990458 L870.242115,22.718433 L868.932987,23.1764221 L868.40334,23.1735008 L866.55968,22.7068804 L866.518218,22.6963901 L866.491957,22.6379629 L866.427779,22.495082 L866.395093,22.4223137 L866.40051,22.2470322 L866.54343,21.5595838 L866.695537,21.2233622 L866.781169,20.6386925 L866.741831,20.3911739 L866.5767,20.0585375 L866.537668,20.0135221 L866.443472,19.9051663 L866.338748,19.7845939 L865.886064,19.4967075 L865.713737,19.3871566 L865.680201,19.3657776 L865.229111,19.2202409 L864.542564,19.2696384 L864.440641,19.3074832 L864.302833,19.358607 L864.23195,19.3848992 L864.06978,19.5042764 L863.758542,19.7334702 L862.982818,20.5948721 L861.768616,21.6642215 L859.050349,22.7861554 L858.27424,23.2387001 L857.540589,23.8512556 L856.028558,24.906795 L854.699715,25.6805562 L853.858884,26.0401487 L852.385939,26.4649405 L852.310423,26.4867179 L852.294133,26.480344 L852.287574,26.477821 L852.19691,26.4427648 L852.075033,26.1186269 L852.132281,25.7862562 L852.286087,25.4937221 L852.333736,25.2523118 L852.347583,24.7182346 L852.328718,24.6290005 L852.206841,24.0528292 L851.676729,22.7107313 L851.6153,22.663724 L851.425142,22.5183201 L851.313953,22.4333351 L851.166214,22.360434 L850.426123,21.9949988 L847.904214,21.8251617 L846.808994,22.225786 L846.38297,22.9646237 L846.320358,23.0023358 L845.806776,23.3113357 L845.483616,23.3017749 L845.223878,23.19727 L844.847905,22.9196083 L844.780129,22.593213 L844.741574,22.4075741 L844.805327,21.6096453 L844.785054,21.1730352 L844.782412,21.115936 L844.708397,20.9467628 L844.447569,20.6821144 L843.878771,20.1051465 L842.142184,19.326472 L842.097841,19.3628562 L841.914335,19.5137045 L841.827906,19.7051861 L841.76106,20.1358207 L841.822848,20.5774768 L841.774734,20.8427891 L841.406196,21.0017375 L840.879576,21.0349347 L840.664367,20.7863538 L840.604875,20.6632584 L839.977302,19.3640513 L839.143308,18.9235904 L838.566637,18.6192381 L837.75727,18.8605156 L836.690807,19.3106702 L834.125245,19.9944005 L832.625535,20.1044825 L832.21888,20.1342272 L832.084046,19.9776691 L832.054785,19.9436751 L832.074128,19.7985368 L832.149631,19.5808957 L832.357751,19.3182391 L832.562526,18.6645191 L832.607546,17.8976629 L832.381914,17.5589183 L831.801326,17.5808285 L831.067077,17.805773 L830.039554,18.5860408 L829.443286,18.8759191 L828.810509,18.8198822 L827.485967,18.7026295 L826.441423,18.4867147 L826.365204,18.4709128 L826.319122,18.4163366 L826.117879,18.1777148 L825.951579,17.5966304 L826.352432,15.7284226 L826.118914,15.3961846 L824.465225,15.3526299 L823.039995,14.9634254 L822.917401,14.8578582 L822.67856,14.3528618 L822.680326,14.3466208 L822.900169,13.5577216 L823.182212,13.0986702 L823.44904,12.9010802 L823.779873,12.7364219 L824.220608,12.5313958 L824.796138,12.2915789 L824.807476,12.2869313 L824.759389,11.1989914 L824.186222,9.07728957 L824.011599,8.43100574 L823.954895,8.34150599 L823.400369,7.46602843 L822.991802,6.98599637 L821.963535,6.34714872 L820.773284,5.85476728 L820.338882,5.67523662 L817.820968,4.91023947 L816.772535,4.97504048 L816.700776,5.02125103 L815.447475,5.82940459 L814.366315,6.52681217 L813.959116,6.72506607 L811.664803,7.84314905 L810.752824,8.01511074 L808.894652,7.47731549 L808.607697,7.22687552 L808.349605,6.69545414 L808.115875,6.21409419 L808.104816,6.19138728 L808.068093,6.11583036 L807.809018,5.58241714 L807.659832,5.15430556 L807.540438,4.64333367 L807.411193,4.0901349 L807.317608,3.68977621 L807.182096,2.80234764 L807.311288,1.59423376 L807.285519,0.667101297 L807.283408,0.591411595 L806.959451,-0.81694803 L806.395047,-2.00806493 L806.146766,-2.53191734 L806.018238,-2.73083519 L805.949532,-2.83719915 L805.929485,-2.86827176 L805.647403,-3.11924288 L803.024101,-4.3845888 L802.990313,-4.38976757 L802.331926,-4.49028881 L801.449061,-4.40583503 L801.388481,-4.40012511 L801.351945,-4.36905249 L800.6013,-3.73299341 L800.499603,-3.44670043 L800.47694,-3.38282895 L800.474086,-3.31152128 L800.4367,-2.37655427 L799.944054,-0.889981954 L799.663764,-0.230950385 L799.597555,-0.0753217332 L799.449351,0.0793773958 L799.424683,0.105138452 L798.269362,1.31112771 L797.863517,1.73485726 L797.7602,1.84281468 L795.314444,4.16091141 L794.685875,4.86761421 L794.054226,5.81293876 L793.686498,7.03951031 L793.501492,7.46802026 L793.290411,7.86399692 L793.25179,7.93649968 L793.239629,7.95920659 L793.191714,8.04910471 L792.850804,8.48385574 L791.910188,8.84544006 L791.13761,9.03187575 L790.821514,9.05604334 L789.949563,9.1225706 L789.708849,9.14089548 L789.632338,9.12243781 L789.407357,9.06812713 L789.357544,9.01846406 L788.71761,8.38014757 L788.363915,8.25306854 L785.063201,7.84460973 L783.317507,7.7391753 L783.066212,7.86227066 L781.853696,9.01461318 L781.339662,9.93311436 L781.30067,11.3432002 L781.294297,11.5734563 L781.202425,12.1951742 L781.082871,12.5213038 L780.764411,13.3900092 L780.254652,14.3749048 L779.942592,14.7291857 L779.901661,14.7756619 L779.58032,14.9501465 L779.130955,15.0687271 L776.916247,14.4516568 L776.888314,14.4439551 L775.037656,14.3089087 L775.006709,14.3114317 L774.726538,14.334537 L774.219647,14.3760999 L774.204964,14.386723 L772.452206,15.6476869 L771.722166,16.0589343 L770.686544,16.5373729 L768.046621,17.5014207 L767.971437,17.5287752 L767.537513,17.8525147 L767.388858,17.9633934 L767.204011,18.1012284 L767.165934,18.2192778 L767.130885,18.3278991 L767.107107,18.401597 L767.12961,18.8919866 L767.219956,19.1211803 L767.644494,19.7403752 L769.25157,21.6157536 L770.501698,22.2058677 L771.026671,22.5537747 L771.896219,23.3940632 L772.205346,23.9297338 L772.217746,23.9649229 L772.222525,23.9786002 L772.404783,24.4960787 L772.451171,24.6276726 L772.446617,24.7082755 L772.437815,24.8643025 L772.431787,24.9710648 L772.352288,25.098675 L772.219087,25.3124652 L772.114881,25.4797793 L772.060753,25.4892073 L772.036842,25.4934565 L771.496309,25.5878695 L769.704798,25.4161734 L767.15988,25.3191047 L766.932815,25.4530887 L765.186311,26.966086 L764.218226,27.7144846 L763.9074,27.9548326 L763.204828,28.4980722 L762.648655,28.5738947 L762.308847,28.5179905 L761.894426,28.2100529 L761.555666,27.8139435 L761.33824,27.3428083 L760.993639,26.3257777 L760.726678,25.5380736 L760.688614,25.4257342 L760.679865,25.3681038 L760.41937,23.6534 L760.611665,22.5419565 L760.607854,22.1338961 L760.591498,22.0366945 L760.334986,20.5110823 L759.936934,19.2803943 L759.643102,18.5878999 L759.565462,18.4677259 L759.088429,17.7288882 L758.589796,16.9567204 L758.500127,16.8640337 L758.294317,16.6513058 L758.003047,16.3501405 L757.779686,16.2002217 L757.708883,16.1526833 L757.557652,16.0512325 L757.035414,15.8293422 L756.926667,15.8038467 L756.061991,15.6006796 L752.923741,14.8642321 L751.943601,14.689349 L751.016938,14.632117 L750.442496,14.7745996 L750.049808,15.0635483 L749.883456,15.3758679 L749.09577,17.1791419 L749.022511,18.0890118 L748.698276,19.5226013 L748.570902,19.8379751 L748.201793,20.3361992 L746.859368,21.0958848 L746.351534,21.2082243 L744.575039,21.601014 L742.188097,21.8729658 L741.974427,21.6955597 L741.553368,21.3460592 L741.272042,20.9050671 L741.158874,20.2026135 L741.097166,18.617379 L740.580516,18.029124 L740.008903,17.7571722 L739.332699,17.7842611 L738.044096,18.5912196 L736.935374,19.6519378 L735.963187,20.7389481 L735.34743,22.2893919 L734.315445,24.8886029 L734.115729,25.848003 L734.169406,27.2685793 L734.173468,27.3761383 L734.051604,28.2328926 L733.746992,30.3743801 L733.418694,31.3900827 L733.354822,31.5878055 L732.99324,32.3466944 L732.722947,32.754622 L732.495151,33.0159507 L732.383032,33.1446232 L732.303959,33.235318 L732.226571,33.3241538 L731.605994,33.8769542 L731.318216,34.0373633 L731.180553,34.065249 L730.971637,34.1077414 L730.887332,34.1248712 L730.624301,34.05768 L729.655021,33.526657 L729.526877,33.4424688 L729.341447,33.3207013 L728.157701,32.543222 L727.226232,31.841698 L724.769443,30.4982721 L724.614481,30.4808768 L724.295769,30.6851062 L724.223041,30.7318479 L724.14479,30.8614499 L723.859694,31.3337802 L723.688894,32.4460205 L723.724753,32.8377479 L723.878214,33.3291998 L723.872134,33.411529 L723.868908,33.4552165 L723.866823,33.4833678 L723.630424,33.5081993 L723.604443,33.499568 L723.461324,33.4516312 L722.831082,33.2410279 L722.80279,33.2173915 L722.475674,32.9438463 L722.062049,32.4207906 L722.042201,32.3765719 L721.984502,32.248165 L721.935008,32.1378173 L721.929525,32.0841706 L721.852548,31.3299293 L721.851035,31.315057 L721.872184,31.1380493 L721.9772,30.259252 L721.993782,30.1203548 L722.021277,29.8903643 L722.155993,29.4427328 L722.830923,27.9074269 L723.292581,26.0900773 L723.337429,25.913468 L723.493227,24.0333092 L723.365813,23.4506313 L723.313306,23.2105489 L722.10144,21.5044764 L721.596474,20.7936572 L720.345868,19.033938 L719.451546,17.7758954 L718.747422,16.9146263 L718.726087,16.8884669 L716.904996,15.9772691 L716.777636,15.9424784 L716.613129,15.8975957 L716.111946,16.1403339 L715.684116,16.3474847 L715.255024,16.4574339 L714.862482,16.3712539 L714.60277,16.208853 L714.478105,15.8521819 L714.523683,15.6526001 L714.585538,15.3818434 L714.858645,14.8356825 L714.938463,14.089143 L714.910835,13.8130748 L714.530826,13.0577712 L714.045575,12.6548895 L713.804782,12.5632651 L713.393095,12.4064414 L712.09354,12.1287797 L710.948136,11.5168882 L710.455331,10.8226676 L710.143668,9.99711864 L710.098489,9.34871019 L710.27448,8.60310022 L711.060931,6.41487108 L711.408281,5.15643019 L711.49779,4.34508969 L711.506672,3.33682318 L711.34713,1.97653315 L710.846333,0.837469523 L710.771308,0.666835719 L710.411904,0.0528196054 L710.043007,-0.422830421 L709.150305,-1.2054885 L708.613874,-1.55618413 L708.085289,-1.78537786 L707.125449,-2.04298842 L706.5109,-2.08853503 L705.100274,-1.86027083 L703.631909,-1.40002432 L702.933786,-1.05118774 L702.927586,-1.0481336 L701.920388,-0.347273507 L700.786508,0.843843392 L700.73262,0.96069767 L700.614951,1.21578525 L699.551807,3.52139982 L698.784408,5.54536903 L698.434496,7.225946 L697.884085,7.83358825 L696.814463,9.58241874 L696.534026,10.1880692 L696.485475,11.4150391 L696.542988,12.7486385 L696.717386,13.1869748 L697.171902,14.0045564 L697.438677,14.3735769 L697.515719,14.4321368 L697.56131,14.4669276 L697.638313,14.5254875 L697.900083,14.6043641 L698.814811,14.5596142 L699.413654,14.6410139 L699.466109,14.6677044 L700.600414,15.2453364 L701.177258,16.0010383 L701.177696,16.0777903 L701.18306,17.0199279 L700.6363,19.1239689 L699.471313,23.6091813 L699.311851,24.0415421 L699.205308,24.1882739 L698.886861,24.6266103 L698.731183,24.8409316 L698.632526,24.9158246 L698.48962,25.0243132 L697.678541,25.6401883 L696.813945,26.2969625 L696.156991,26.7959834 L695.611983,27.0287624 L695.565676,27.048548 L695.359534,27.0222557 L694.113694,26.8641041 L693.654306,26.8058098 L692.169213,25.81215 L691.800329,25.5652954 L691.764191,25.5411278 L691.421847,25.0661417 L691.408796,25.0293592 L691.368861,24.9168869 L691.277268,24.658878 L691.252985,24.36568 L690.968738,20.935343 L690.375976,19.485022 L690.207964,19.242815 L690.087521,19.1800058 L688.258424,19.0421709 L687.788083,19.1322018 L687.322999,19.3203637 L686.683769,19.747413 L686.468891,19.8909579 L686.351382,20.0212238 L685.437106,21.0353331 L685.319518,21.1375806 L684.811671,21.5793694 L684.415531,21.5728627 L683.804088,21.2723613 L683.67629,21.0136885 L683.421344,20.4978034 L682.980981,19.6069223 L682.79952,19.4342967 L682.515087,19.3240818 L682.009245,19.2894239 L681.786548,19.444123 L681.484497,20.4160054 L681.474832,20.4290187 L681.349424,20.5985902 L681.150053,20.6745455 L680.687863,20.6669765 L680.251509,20.4223793 L680.094835,20.0667704 L679.911714,19.6512738 L679.74402,18.5596158 L678.869149,16.1358191 L677.651734,14.0750674 L676.807039,13.1403659 L676.41463,12.7965753 L675.90361,12.4914263 L674.434316,12.4396386 L672.182062,12.3604964 L671.303566,12.3298222 L669.323186,12.3808131 L667.138456,12.9919079 L666.038762,13.6768333 L665.286882,14.5558961 L664.805548,15.6078502 L664.956819,16.7571386 L665.184389,17.3137899 L665.419792,17.5838826 L665.648358,18.3260401 L666.044046,19.6110388 L666.139888,19.9224289 L666.157705,22.9372692 L665.825809,23.4906008 L665.261525,24.4315433 L665.018129,24.7154461 L664.973202,24.7678977 L662.937605,25.9461341 L662.027657,26.4730406 L661.73733,26.6412842 L660.827648,26.9222657 L660.707205,26.9595794 L660.638022,26.9636958 L659.957436,27.0052588 L657.735054,26.0886166 L656.989574,25.7999334 L656.08649,25.0249771 L655.97765,24.9572548 L654.805799,24.227845 L653.794434,23.721388 L653.370918,23.6174142 L652.970105,23.5848809 L652.654592,23.6373326 L649.958032,24.0857609 L649.377988,24.327304 L649.152516,24.5367121 L648.5832,25.4634462 L648.269108,25.9748165 L648.180621,26.4608241 L648.159472,26.5770144 L648.17142,26.9247887 L648.268762,27.2027159 L648.398499,27.3293966 L648.826051,28.1078054 L648.851568,28.4242415 L649.107722,31.5994909 L649.009862,31.8443537 L646.589344,33.9526439 L643.535318,35.8503309 L640.768274,37.0259114 L640.304,37.1597627 L640.118343,37.2132767 L639.624702,37.2386393 L638.857289,37.2780777 L638.85628,37.2780777 L638.710479,37.2246965 L636.872421,36.5510582 L636.254035,36.1149792 L635.675916,35.1697875 L634.936875,33.0993421 L634.274584,31.8629442 L633.418525,30.7724813 L632.385678,29.7845315 L631.537398,29.1328034 L631.35927,29.0865928 L631.011562,29.1092997 L630.773942,29.2309344 L630.241002,29.2079619 L629.217462,29.163876 L628.997951,29.1544479 L628.958374,29.1410363 L627.863885,28.771219 L627.830853,28.7600648 L627.798804,28.7491761 L627.799269,28.7368267 L627.818227,28.2266515 L628.175175,27.4009698 L628.239924,26.4606913 L628.14156,26.2200777 L628.030224,26.1061448 L627.815267,25.8861135 L627.711578,25.7800151 L627.507123,25.67312 L626.618722,25.7877169 L625.269752,25.208757 L625.694263,24.3704604 L625.784689,23.5482312 L625.676393,23.0006095 L625.189085,22.2731917 L623.121094,21.4398082 L622.896909,20.7085394 L622.662648,20.2606423 L622.631369,20.2347485 L622.524707,20.146311 L619.280949,17.4614512 L619.211633,17.4040864 L619.145331,17.3492445 L616.447908,16.4640734 L615.298361,16.0870856 L614.601074,16.0217534 L613.869481,16.1955741 L611.480401,17.3108685 L610.399653,18.115968 L608.810181,19.0482792 L606.982399,20.1206828 L606.572545,20.3611636 L606.534827,20.3833393 L606.491055,20.4003363 L606.363602,20.4498666 L606.28097,20.4818687 L605.798746,20.4701833 L605.773362,20.4620832 L605.341721,20.3238499 L604.759048,20.2502848 L603.871033,20.3523995 L602.719535,20.819551 L601.927428,21.4319737 L601.470682,21.9113418 L600.734535,22.9747157 L600.633953,23.25012 L600.634789,23.4895385 L600.751263,23.9764756 L601.178283,25.0703909 L601.321562,25.2404936 L601.547525,25.2430166 L602.023058,24.5798686 L602.427402,24.2872017 L603.047713,24.4863851 L603.089627,24.4999296 L603.25031,24.6510434 L603.487546,24.8742617 L603.5573,24.9398594 L603.97585,25.5479 L604.385638,27.0126949 L604.502642,27.7662722 L604.459162,28.2192154 L604.404331,28.7906062 L604.270797,28.9848765 L604.142083,29.0442331 L603.173918,28.7474498 L602.863796,28.7376234 L602.221659,28.8692173 L602.058665,28.9822207 L601.862759,29.3309245 L601.845407,29.7052565 L602.028289,29.9567588 L602.873687,30.3871278 L603.527707,31.0616957 L603.939154,32.0338436 L604.394586,33.5803037 L604.517764,33.9985889 L605.239241,36.4493418 L605.264041,36.6620697 L605.188645,36.7685665 L605.184887,36.773878 L605.171571,36.7926013 L605.036325,36.8385462 L604.410385,36.6938063 L604.022609,36.6931423 L603.71805,36.7945931 L603.174994,37.2548396 L603.136293,37.2877713 L603.093079,37.3479247 L602.846869,37.6907857 L602.475609,38.2079987 L602.060059,38.9259886 L601.780764,39.0939666 L601.751291,39.1116275 L601.699447,39.0907796 L601.254264,38.9109834 L600.699843,38.3992148 L600.141148,38.0806541 L599.938192,38.0270074 L598.63249,37.6822872 L597.905437,37.4904072 L596.336982,37.180345 L596.214162,37.1560446 L595.210895,37.0807533 L593.562131,37.079691 L592.449971,37.2952074 L591.832408,37.4148503 L588.434379,38.3515436 L588.136444,38.4735766 L587.772699,38.7975816 L585.852341,42.2743948 L585.621093,42.5815356 L585.619713,42.7384922 L585.617801,42.9575939 L585.793633,43.3084223 L586.038183,43.4717528 L586.528904,43.6103844 L586.561656,43.6504867 L586.617391,43.7186074 L586.704231,44.0148596 L586.744193,44.552522 L586.381271,45.1403787 L586.155719,45.374884 L584.465639,47.1323458 L584.037729,47.8333387 L583.764488,48.5762929 L583.651122,49.9210466 L583.84574,50.3951031 L583.914007,50.4710584 L584.239025,50.8322444 L584.560777,51.189845 L584.734419,51.3827874 L585.169923,51.8668031 L585.538103,52.2760586 L585.67858,52.4322184 L585.94562,52.8327099 L586.238935,53.2725069 L586.280689,53.3350505 L586.787248,54.3548697 L587.11001,55.2011337 L587.318993,55.9484699 L587.421619,56.8669711 L587.361623,57.156451 L587.136124,57.5342356 L585.906123,59.5952529 L585.271115,60.4291675 L584.975717,60.6592907 L584.357609,60.744674 L583.272148,60.7077587 L582.366741,60.1098101 L581.644905,59.2878465 L581.36731,58.7965273 L580.923136,58.0105495 L579.51976,55.9925558 L579.148115,55.6556702 L577.722168,54.7168524 L574.985527,54.927854 L573.928888,55.0711333 L573.48267,55.1991418 L571.916645,55.7973561 L571.039171,56.2724749 L570.830852,56.5878487 L568.898571,57.4358389 L568.05146,57.0782383 L567.202,56.9235392 L567.010621,56.8886157 L566.421177,56.9220785 L565.742238,56.9605873 L564.089067,57.0546019 L562.633912,57.3365128 L562.424292,57.3771462 L561.650519,57.6014268 L559.369204,59.329675 L558.897203,59.8123628 L558.545287,60.0021182 L558.05835,60.0912196 L556.463568,60.3830897 L553.818148,60.8676366 L553.411281,60.7353788 L553.394208,60.7298017 L553.325662,60.6889027 L551.718201,59.7275107 L551.693972,59.6981643 L551.336307,59.2634133 L549.630906,56.6231706 L549.327037,55.7055989 L549.385347,55.6385405 L549.671426,55.5839642 L549.65799,53.105724 L549.644037,53.0488903 L549.491982,52.4285003 L549.373982,52.2824325 L547.710588,50.2243365 L547.297454,49.9209138 L547.26891,49.9121497 L547.132509,49.8707196 L547.03064,49.8396469 L546.753602,49.9189219 L546.387507,50.1762669 L545.988831,50.2806391 L545.688759,50.288872 L545.616854,50.290731 L545.542055,50.2927228 L545.212217,50.2256644 L544.69282,50.1198316 L544.567531,50.0943362 L544.443862,50.0296679 L544.316396,49.9628751 L544.235795,49.920781 L544.124393,49.7740492 L543.938232,49.4264077 L543.898721,49.3525771 L543.898124,49.3428835 L543.876311,48.9886025 L543.804539,48.7825141 L543.480875,48.4910423 L541.674202,47.7128991 L540.298878,47.1206604 L539.445966,46.822018 L539.350217,46.8303837 L539.212554,46.8423347 L538.920368,46.8676974 L538.864408,46.9040816 L538.829399,46.9267885 L536.725986,48.2958426 L533.7684,51.6079974 L533.469828,52.3254561 L532.77339,53.4265421 L530.970501,55.1841367 L530.025026,56.493303 L529.826252,57.2209864 L528.318125,58.9651693 L527.742343,59.5327093 L524.963111,61.2308144 L524.450671,61.1814169 L523.855638,60.7774729 L523.69664,60.7149293 L523.696175,60.7146637 L523.694264,60.7139998 L523.491985,60.6343264 L523.454705,60.6328657 L523.012377,60.6160015 L522.891907,60.6114867 L522.777917,60.6326002 L522.429691,60.6972684 L522.28778,60.7235606 L521.150023,61.149282 L520.765872,61.2930924 L520.564324,61.3685165 L519.645879,61.7942379 L519.052439,61.7789672 L518.745968,61.5823068 L518.127715,60.8653792 L514.474262,57.6387405 L513.92709,57.155787 L513.137851,57.2073092 L511.927605,57.3839185 L510.739278,57.5576064 L510.563659,57.6311715 L509.008586,57.5496391 L508.513591,57.5237452 L508.368865,57.4423456 L508.204424,57.1719873 L508.154904,56.8210261 L507.883389,56.290667 L507.794185,56.2103297 L507.577409,56.0153955 L506.681122,55.8229843 L506.597614,55.8278975 L506.060772,55.8595013 L505.732673,55.8787557 L505.724853,55.8869886 L505.411624,56.2136494 L505.431379,56.5036605 L505.298935,57.0195456 L505.146788,57.2249701 L504.903777,57.4246847 L504.790477,57.5179025 L504.684054,57.6054104 L504.436888,57.687474 L503.765264,57.9106922 L503.003546,58.163788 L501.444756,58.6820633 L499.924574,60.1797898 L499.63049,60.4695353 L498.977904,60.7930092 L498.877906,60.8426723 L496.654516,61.3849824 L495.265092,61.3463408 L493.821408,61.3063713 L493.737741,61.3041139 L493.66022,61.3018565 L493.564843,61.266933 L493.468788,61.2317439 L493.447759,61.2240422 L493.377328,61.0079945 L493.37596,60.9855532 L493.374871,60.9676267 L493.315234,59.9926902 L493.107008,59.5773264 L492.810374,59.4587458 L492.258211,59.5206255 L492.129058,59.5350995 L492.069315,59.5900741 L491.497423,60.1175118 L491.301105,60.420669 L491.29071,60.6229066 L491.623681,61.1261767 L491.747775,61.5042268 L491.706777,61.8007446 L491.537743,62.0298055 L491.098163,62.1876916 L489.119482,62.8986436 L487.078946,63.6321698 L485.979253,64.2691584 L485.689005,64.5049916 L485.39204,64.8791909 L484.862154,65.6411339 L484.777703,65.8668751 L483.29966,67.485174 L482.054458,68.6615514 L481.795476,68.8041667 L481.066272,68.9813072 L480.783074,68.8596725 L480.597763,68.6067095 L480.625192,67.8814163 L480.578193,67.6284533 L480.109671,67.1358063 L479.779302,67.1320882 L479.151862,67.4656541 L478.851498,67.8668095 L478.594773,68.4469644 L478.266927,69.5293272 L477.541679,70.0652634 L477.106587,70.1255496 L475.894854,69.5379584 L475.568083,69.070143 L475.603013,68.6073735 L475.627681,68.2805799 L475.631252,68.233307 L475.27976,67.9189955 L474.388705,67.4147959 L471.551508,67.9588322 L471.406424,67.8913754 L471.217369,67.6283205 L470.977651,67.0652954 L470.670609,66.6775516 L470.019749,66.67795 L468.88336,67.0261226 L468.795842,67.1273078 L468.75207,67.3736313 L468.607291,67.6434585 L467.858983,68.1803242 L466.695815,68.5959536 L466.260829,68.6399068 L466.058072,68.5976799 L464.712713,68.3170968 L463.512358,67.8024068 L462.685587,67.4481259 L461.407645,67.2060517 L460.507282,67.3922218 L460.113081,67.5987086 L459.857657,68.0375761 L459.898641,68.3275871 L460.078098,68.7456068 L460.392084,68.9775891 L460.503778,69.2069156 L460.389933,69.5982446 L460.272065,69.7132399 L460.015991,69.8080512 L459.085199,69.7727293 L458.379296,69.1264455 L456.539724,68.2629189 L452.937199,69.0418589 L452.811565,69.0690807 L452.781375,69.1026763 L452.49511,69.4204402 L452.424905,69.7343533 L452.500062,70.2299217 L452.750892,70.9647757 L452.73812,71.3290158 L452.617452,71.7239302 L452.079932,72.8616659 L451.885526,73.4860396 L451.918013,75.9346678 L452.209217,77.6266647 L452.08511,78.865984 L452.072271,78.8807235 L452.030597,78.9287931 L452.005252,78.9580067 L451.521011,78.913124 L451.098544,79.0279865 L450.624897,79.2614294 L450.386905,79.6365582 L450.35925,79.680113 L450.329139,79.7931164 L450.149975,80.4655597 L450.128149,80.5473577 L449.939359,82.9029009 L449.910509,83.2630245 L450.140682,83.7481026 L450.373164,85.3621523 L450.255482,87.0363554 L450.226075,87.0962432 L450.219915,87.1088581 L449.961331,87.6354991 L449.448811,87.8061329 L449.151553,87.7856834 L448.881738,87.5865 L448.371448,87.5442731 L447.902674,87.6649783 L447.584333,87.93693 L447.503347,88.1904242 L447.387113,89.5686407 L447.242268,90.1161295 L447.032302,90.9100747 L447.026328,90.9326488 L446.794908,91.4218433 L446.332506,92.3995684 L445.598377,92.8895596 L445.300336,92.757169 L444.894836,92.3643793 L444.409824,92.3993028 L442.877136,93.7240054 L442.808457,93.7994295 L442.433573,94.211208 L442.38372,94.4608513 L442.552768,94.6018731 L442.595558,94.6046617 L442.818441,94.6190029 L442.909955,94.6248456 L443.706297,94.6761021 L443.738625,94.6932319 L443.933854,94.7965417 L444.111677,94.8905563 L444.171275,94.9453981 L444.350386,95.1101892 L444.382143,95.1394028 L444.379966,95.1533456 L444.355803,95.3085759 L444.140022,96.6947598 L444.108916,96.8946072 L444.101096,96.9448014 L443.754464,97.1886019 L440.868981,98.4935189 L440.615881,98.6081158 L440.039555,98.704255 L439.49614,98.5373393 L438.374713,97.9201362 L437.385705,97.6568158 L437.142933,97.6710242 L436.991543,97.7558763 L436.968137,97.7902686 L436.772244,98.0784207 L436.430949,98.5806285 L436.325296,98.8094239 L435.891557,99.7491713 L435.602797,100.086322 L435.239808,100.510185 L434.351049,101.032178 L433.247731,101.922661 L432.519072,102.633613 L432.481194,102.670528 L432.47591,102.717403 L432.435178,103.078721 L432.476388,103.31814 L432.493276,103.350673 L432.637231,103.628335 L432.651689,103.656221 L432.675839,103.702697 L432.713876,103.776129 L432.719372,103.859786 L432.727497,103.983678 L432.735131,104.099868 L432.713185,104.125762 L432.234413,104.691443 L430.917081,105.113845 L430.215386,105.13788 L430.133218,105.104682 L429.525838,104.859421 L427.902579,102.790437 L427.853881,102.728424 L427.8168,102.681151 L427.806126,102.572264 L427.71359,101.627604 L427.555853,100.017671 L427.565957,99.2350124 L427.615663,99.0290568 L427.927936,98.7308128 L428.218556,97.3098382 L427.63595,93.9995424 L427.499601,93.2249845 L427.211146,92.815065 L426.800442,92.5813564 L426.632244,92.5399263 L426.426766,92.4892009 L426.286262,92.4544102 L426.081289,92.4804368 L424.671951,93.6183054 L423.40005,92.603001 L423.378263,92.5856057 L422.186737,92.6951566 L421.670353,93.5468649 L420.744912,94.7819349 L419.449698,95.4904968 L418.514538,96.0022654 L418.352367,95.9996096 L417.776094,95.9900488 L417.71173,95.9889865 L416.532551,96.2301313 L416.142439,96.4881402 L415.697243,97.2354764 L415.334918,97.675539 L414.996583,97.9535991 L413.242272,98.6142241 L412.834622,98.6838055 L412.097665,98.3507708 L411.475588,98.2618022 L411.348427,98.2436101 L408.975571,98.4422624 L408.154283,98.7301489 L407.479725,99.0856249 L407.397836,99.1287813 L407.292568,99.1480357 L406.484689,99.295697 L405.914708,99.2788328 L405.218775,99.0429996 L404.671896,97.7238742 L404.56299,96.3180375 L404.651689,95.2990151 L404.538561,94.9623951 L404.504428,94.9048975 L404.317563,94.5900549 L404.273087,94.5151619 L403.200398,93.236006 L402.74628,92.8780069 L399.794814,92.7322047 L399.265924,92.9672411 L398.978212,93.0951169 L396.692303,93.6805834 L396.135944,93.1884675 L395.503087,92.8790693 L395.441751,92.8637985 L395.094335,92.7772201 L394.765201,92.8404277 L394.693575,92.8542377 L394.610399,92.9208978 L394.039688,93.3782229 L393.922737,93.4216449 L393.198777,93.6908081 L390.981122,93.8879997 L389.591579,94.8551017 L389.011575,95.358239 L388.752181,95.8896604 L388.829556,96.3747384 L388.728019,96.807232 L388.568224,97.1118499 L388.102928,97.6276022 L386.877096,98.3644481 L385.592542,98.8925497 L383.971964,99.8656272 L382.397947,101.234017 L382.348957,101.433466 L382.690159,101.933417 L382.698284,102.105378 L382.605177,102.261273 L381.559518,103.112715 L381.375442,103.262634 L380.492193,103.289989 L380.395195,103.395821 L379.198399,104.703394 L376.709056,108.008511 L376.179887,109.304531 L376.250703,109.725738 L375.392148,111.16942 L374.471353,111.540963 L373.020235,112.561048 L372.028199,113.258588 L370.321617,115.374713 L370.112342,115.634315 L369.703271,116.297729 L369.598122,116.777894 L369.460353,117.036035 L369.20639,117.328968 L369.01841,117.545812 L368.232304,118.452761 L368.134789,118.565233 L367.923164,118.809432 L367.124339,119.578147 L366.852347,119.773612 L366.495093,119.817167 L364.654911,121.187284 L364.458926,121.333351 L363.73028,121.969942 L363.564352,122.60454 L362.821633,122.92974 L360.829755,123.325186 L359.764487,123.178454 L359.750932,123.176595 L359.486786,122.932927 L359.381703,122.587145 L359.381119,122.372159 L359.21385,122.161955 L358.389044,121.370532 L357.659561,120.837783 L357.267736,120.714821 L355.917518,120.545515 L354.405102,120.614432 L354.1462,120.62625 L354.365539,142.731494 L354.418034,148.009058 L354.575504,163.826613 L354.83523,189.820581 L355.06029,212.251955 L355.09291,215.499176 L355.192629,225.411606 L355.232113,229.331137 L355.415884,247.544204 L355.709464,276.524729 L355.717749,277.340319 L355.898413,295.102435 L356.102325,315.088367 L356.365887,340.824061 L356.479718,351.905697 L356.529398,356.735896 L356.588067,362.435197 L356.920254,394.605313 L357.040485,406.207615 L357.040684,406.227135 L356.653001,406.230853 L346.38507,406.332835 L335.541012,406.460578 L320.152033,406.660956 L320.107531,406.668392 L320.080434,406.660292 L318.546033,406.688444 L317.321873,406.670119 L317.319098,406.667197 L315.252847,406.703847 L315.251678,406.705839 L312.072005,406.744746 L312.067159,406.755502 L307.915272,406.808618 L307.905235,406.805032 L306.993654,406.824951 L306.990362,406.818975 L305.488448,406.842611 L304.643607,406.856023 L304.643554,406.86014 L298.908249,406.929987 L294.992177,406.979384 L294.030703,407.004348 L294.010935,406.987351 L293.923417,406.996116 L293.923536,407.003684 L292.148209,407.032367 L288.346977,407.108189 L288.34703,407.111642 L287.720917,407.119078 L287.701999,407.125186 L286.630239,407.135013 L286.629734,407.140855 L286.622844,407.140988 L279.995886,407.251601 L279.996085,407.256382 L278.875946,407.2763 L278.875906,407.273777 L275.605277,407.333665 L272.827505,407.385187 L272.827824,407.389835 L270.956748,407.423962 L270.956681,407.427148 L266.503487,407.507751 L266.503593,407.513461 L261.619197,407.604289 L261.616462,407.604289 L261.228474,407.613451 L261.226442,407.619427 L259.082497,407.651562 L259.08036,407.651695 L255.916964,407.724065 L254.86845,407.742389 L251.964142,407.798161 L251.952977,407.798426 L247.869317,407.87 L245.782858,407.90904 L243.631877,407.952063 L240.903639,408.007171 L232.788084,408.168642 L231.945367,408.189888 L228.051134,408.226538 L203.696794,408.795937 L167.202105,409.746308 L163.978952,409.835807 L160.880769,409.927299 L160.435719,409.939648 L158.167866,409.998341 L155.08608,410.078811 L153.822795,410.145869 L149.681622,410.264052 L145.637578,410.380906 L145.482842,410.385421 L145.343056,410.388475 L145.179239,410.391795 L145.016019,410.395247 L144.564305,410.404675 L144.450805,410.407065 L139.88435,410.519139 L139.876889,410.536933 L128.616843,410.990673 L127.548946,411.03436 L115.405544,411.423034 L104.733587,411.77519 L104.329349,411.73522 L102.14665,411.806528 L99.926698,411.879429 L90.1119154,412.261994 L89.460405,412.23464 L76.9689902,412.664079 L36.3399128,414.155432 L0,415.611994 L0.145110534,419.473231 L0.657577743,430.692702 L0.738921955,432.825027 L1.06433863,441.376636 L1.3749389,447.896308 L2.57751092,475.923541 L2.55649445,476.221785 L3.11091493,489.269494 L4.90062036,488.961026 L5.03909272,488.962088 L5.7711508,488.928227 L22.0454365,488.413404 L25.2879732,488.457756 L26.211795,488.307837 L29.5396455,488.060451 L31.7555749,488.087274 L33.8459898,487.660756 L39.0225591,487.083257 L59.5330236,486.261293 L79.534725,485.495765 L79.5437131,485.485275 L90.7120464,485.079339 L91.7246471,485.028746 L96.9104966,484.771401 L99.7516626,484.655742 L115.086182,484.08143 L116.535362,484.031103 L118.194043,483.984361 L121.475506,483.902032 L121.4754,483.898712 L133.06008,483.606046 L164.992894,482.861498 L168.618427,482.782754 L168.760112,482.787402 L169.373785,482.775052 L174.097272,482.681303 L178.372244,482.586758 L182.359412,482.491415 L190.670196,482.329678 L190.804712,482.332467 L195.022277,482.249341 L197.029941,482.208442 L197.209225,482.204857 L197.431152,482.205122 L208.287544,482.013508 L214.553717,481.907808 L214.722128,481.915642 L220.559859,481.821628 L225.63136,481.742353 L229.102635,481.68937 L231.826929,481.648604 L233.381125,481.62178 L238.219851,481.549145 L240.126282,481.489522 L246.144705,481.380768 L250.987427,481.343056 L251.025066,481.369481 L252.514978,481.318889 L256.771416,481.238419 L261.658906,481.211728 L262.623101,481.194333 L267.423817,481.116917 L268.439166,481.124618 L271.082076,481.032197 L275.922608,481.00949 L278.050051,481.000062 L283.039224,480.949868 L283.459673,480.955844 L287.992114,480.934199 L288.002097,480.930614 L292.568472,480.908172 L292.696377,480.889051 L299.486169,480.815751 L334.037598,480.506353 L334.973527,480.502237 L335.136734,480.485904 L335.706674,480.485505 L335.706674,480.485505 Z" id="OK" fill="#F8DC3D" sketch:type="MSShapeGroup" transform="translate(518.000000, 245.500000) scale(1, -1) translate(-518.000000, -245.500000) "></path>
        <path d="M1013.53045,357.971278 C1009.55637,333.076194 993.401997,312.174697 945.558207,292.673548 C928.939329,284.997564 910.410827,279.4999 904.888405,266.844899 C902.927171,259.480104 902.669114,255.330923 903.907788,250.870554 C907.468976,236.400286 924.65558,231.888053 938.280996,236.037233 C947.054938,238.993524 955.364377,245.787808 960.370686,256.627542 C983.802272,241.379303 983.750661,241.483033 1000.11148,231.006352 C994.124557,221.670695 990.924648,217.36592 987.00218,213.372334 C972.912262,197.553583 953.712812,189.410816 923.004015,190.033193 C917.688038,190.707435 912.32045,191.433542 907.004473,192.107784 C891.675881,195.99764 877.069848,204.088543 868.502351,214.928277 C842.799862,244.231865 850.128685,295.52611 881.405207,316.635066 C912.217227,339.870478 957.480446,345.160683 963.260925,366.892016 C968.88657,393.498637 943.803419,402.108187 918.875101,399.048166 C900.501434,395.210174 890.282372,385.822653 879.237528,368.759148 C858.902627,380.584312 858.902627,380.584312 838,392.668801 C842.954697,403.5604 848.16745,408.487552 856.47689,417.926938 C895.804795,458.018395 994.22778,456.047534 1011.87889,395.365768 C1012.60145,393.291178 1017.3497,379.391423 1013.53045,357.971278 L1013.53045,357.971278 Z M809.70801,193 L758.839804,193 C758.839804,237.110916 758.633022,280.91046 758.633022,325.021376 C758.633022,353.096677 760.080492,378.836693 755.531302,386.724763 C748.087175,402.241426 728.804816,400.321304 720.016609,397.311383 C711.073317,392.900291 706.524128,386.620973 701.251204,377.746894 C699.803735,375.20403 698.718133,373.232012 698.356265,373.076327 C684.553612,381.535244 670.802654,390.046056 657,398.504972 C663.875479,412.672361 674.007764,424.971522 686.983292,432.963382 C706.369042,444.639801 732.423489,448.220569 759.666929,441.941251 C777.398428,436.751731 792.700246,426.009426 800.713022,409.662439 C812.292777,388.229724 809.811401,362.282126 809.70801,333.584083 C809.966487,286.774617 809.70801,239.965152 809.70801,193 L809.70801,193 Z" id="JS" fill="#323330" sketch:type="MSShapeGroup"></path>
    </g>
</svg>